<svg width="20" height="20" viewBox="0 0 20 20" fill="none" xmlns="http://www.w3.org/2000/svg">
<path d="M17.8571 18.5714V11.0857C17.857 10.856 17.8016 10.6297 17.6956 10.4259C17.5895 10.2221 17.4359 10.0469 17.2479 9.915L10.7143 5.34286V4.28571H15V0H9.28571V5.34286L2.75214 9.91571C2.56411 10.0475 2.41058 10.2226 2.30453 10.4263C2.19848 10.6299 2.14302 10.8561 2.14286 11.0857V18.5714H0V20H20V18.5714H17.8571ZM10.7143 1.42857H13.5714V2.85714H10.7143V1.42857ZM3.57143 11.0857L10 6.58571L16.4286 11.0857V18.5714H10.7143V12.8571H9.28571V18.5714H3.57143V11.0857Z" fill="black"/>
</svg>
