<svg width="18" height="20" viewBox="0 0 18 20" fill="none" xmlns="http://www.w3.org/2000/svg">
<path d="M0.811111 20C0.581482 20 0.388889 19.9148 0.233333 19.7444C0.0777778 19.5741 0 19.3741 0 19.1444V14.53C0 14.0367 0.175926 13.6141 0.527778 13.2622C0.878889 12.9111 1.30111 12.7356 1.79444 12.7356H15.9833C16.4767 12.7356 16.8989 12.9111 17.25 13.2622C17.6019 13.6141 17.7778 14.0363 17.7778 14.5289V19.1456C17.7778 19.3752 17.6926 19.5752 17.5222 19.7456C17.3519 19.9152 17.1519 20 16.9222 20H0.811111ZM2.22222 11.6244V7.43556C2.22222 6.94222 2.39815 6.52 2.75 6.16889C3.10111 5.81704 3.52333 5.64111 4.01667 5.64111H8.33333V3.98667C8.01482 3.77926 7.75 3.54296 7.53889 3.27778C7.32778 3.01259 7.22222 2.70148 7.22222 2.34444C7.22222 2.12222 7.2637 1.91185 7.34667 1.71333C7.42889 1.51556 7.55259 1.33481 7.71778 1.17111L8.88889 0L10.0578 1.16889C10.2244 1.33556 10.3489 1.51741 10.4311 1.71444C10.5141 1.91222 10.5556 2.12259 10.5556 2.34556C10.5556 2.70185 10.45 3.01259 10.2389 3.27778C10.0285 3.54296 9.7637 3.77926 9.44444 3.98667V5.64111H13.7611C14.2544 5.64111 14.6767 5.81667 15.0278 6.16778C15.3796 6.51963 15.5556 6.94222 15.5556 7.43556V11.6244H2.22222Z" fill="black"/>
</svg>
