<svg width="158" height="150" viewBox="0 0 158 150" fill="none" xmlns="http://www.w3.org/2000/svg">
<path d="M15.7895 150C11.4474 150 7.73158 148.455 4.64211 145.366C1.55263 142.276 0.00526316 138.558 0 134.211V47.3684C0 43.0263 1.54737 39.3105 4.64211 36.221C7.73684 33.1316 11.4526 31.5842 15.7895 31.5789H47.3684V15.7895C47.3684 11.4474 48.9158 7.73158 52.0105 4.64211C55.1053 1.55263 58.821 0.00526316 63.1579 0H94.7368C99.0789 0 102.797 1.54737 105.892 4.64211C108.987 7.73684 110.532 11.4526 110.526 15.7895V31.5789H142.105C146.447 31.5789 150.166 33.1263 153.261 36.221C156.355 39.3158 157.9 43.0316 157.895 47.3684V134.211C157.895 138.553 156.35 142.271 153.261 145.366C150.171 148.461 146.453 150.005 142.105 150H15.7895ZM15.7895 134.211H142.105V47.3684H15.7895V134.211ZM63.1579 31.5789H94.7368V15.7895H63.1579V31.5789Z" fill="black"/>
</svg>
