<svg width="150" height="150" viewBox="0 0 150 150" fill="none" xmlns="http://www.w3.org/2000/svg">
<path d="M53.1158 28.3999C45.8659 28.6791 39.3118 31.2665 35.8076 34.7748C35.4205 35.1617 34.961 35.4685 34.4553 35.6778C33.9496 35.887 33.4076 35.9946 32.8603 35.9944C32.3131 35.9942 31.7712 35.8863 31.2656 35.6766C30.7601 35.467 30.3008 35.1599 29.9139 34.7728C29.5271 34.3856 29.2203 33.9261 29.011 33.4204C28.8017 32.9147 28.6941 32.3728 28.6943 31.8255C28.6945 31.2782 28.8025 30.7363 29.0121 30.2308C29.2217 29.7252 29.5289 29.2659 29.916 28.8791C35.3201 23.4749 44.1201 20.4083 52.7908 20.0708C61.5199 19.7333 71.049 22.1208 77.724 28.7957C78.5053 29.5776 78.944 30.6377 78.9436 31.743C78.9432 32.8483 78.5037 33.9081 77.7219 34.6894C76.9401 35.4707 75.8799 35.9094 74.7746 35.909C73.6693 35.9086 72.6095 35.4692 71.8282 34.6873C67.2866 30.1415 60.3116 28.1166 53.1158 28.3957" fill="black"/>
<path fill-rule="evenodd" clip-rule="evenodd" d="M95.566 89.0994C103.828 79.3364 108.352 66.9558 108.333 54.1663C108.333 24.2498 84.0827 0 54.1663 0C24.2498 0 0 24.2498 0 54.1663C0 84.0827 24.2498 108.333 54.1663 108.333C67.4787 108.333 79.6661 103.533 89.0994 95.566L87.4994 104.766L118.807 136.074L136.074 118.807L104.766 87.4994L95.566 89.0994ZM54.1663 95.8327C77.1786 95.8327 95.8327 77.1786 95.8327 54.1663C95.8327 31.1539 77.1786 12.4999 54.1663 12.4999C31.1539 12.4999 12.4999 31.1539 12.4999 54.1663C12.4999 77.1786 31.1539 95.8327 54.1663 95.8327Z" fill="black"/>
<path d="M124.7 141.966L141.967 124.699L147.617 130.349C150.796 133.528 150.796 138.682 147.617 141.857L141.858 147.615C138.679 150.795 133.525 150.795 130.35 147.615L124.7 141.966Z" fill="black"/>
</svg>
