<svg width="15" height="15" viewBox="0 0 15 15" fill="none" xmlns="http://www.w3.org/2000/svg">
<path d="M8.24641 12.0553C8.3635 12.1725 8.42927 12.3313 8.42927 12.4969C8.42927 12.6625 8.3635 12.8214 8.24641 12.9385L7.47008 13.7194C6.64908 14.5397 5.53576 15.0004 4.37506 15C3.21436 14.9996 2.10134 14.5383 1.28085 13.7174C0.460371 12.8966 -0.000365949 11.7835 2.1809e-07 10.623C0.000366385 9.46248 0.461806 8.34967 1.28281 7.52933L3.16664 5.64585C3.95523 4.85677 5.01561 4.39883 6.13079 4.36573C7.24598 4.33264 8.33166 4.72689 9.16568 5.46781C9.22722 5.52236 9.27741 5.5885 9.31338 5.66245C9.34936 5.7364 9.37041 5.8167 9.37534 5.89879C9.38027 5.98087 9.36899 6.06312 9.34212 6.14084C9.31526 6.21856 9.27335 6.29024 9.21879 6.35176C9.16422 6.41329 9.09807 6.46347 9.02411 6.49944C8.95015 6.53541 8.86983 6.55646 8.78773 6.56139C8.70563 6.56632 8.62336 6.55503 8.54563 6.52818C8.46789 6.50132 8.39621 6.45942 8.33467 6.40486C7.739 5.87598 6.96374 5.59459 6.16744 5.61825C5.37114 5.64191 4.61396 5.96883 4.05075 6.53215L2.16693 8.41329C1.58093 8.99918 1.25171 9.79383 1.25171 10.6224C1.25171 11.451 1.58093 12.2456 2.16693 12.8315C2.75293 13.4174 3.54771 13.7466 4.37644 13.7466C5.20517 13.7466 5.99996 13.4174 6.58596 12.8315L7.3623 12.0553C7.42032 11.9972 7.48923 11.9512 7.56509 11.9197C7.64094 11.8883 7.72224 11.8721 7.80435 11.8721C7.88647 11.8721 7.96777 11.8883 8.04362 11.9197C8.11947 11.9512 8.18838 11.9972 8.24641 12.0553ZM13.7198 1.27916C12.8987 0.460028 11.7861 0 10.6262 0C9.46625 0 8.35368 0.460028 7.53256 1.27916L6.75622 2.05614C6.63908 2.17336 6.57332 2.3323 6.57339 2.498C6.57346 2.6637 6.63937 2.82259 6.75661 2.9397C6.87385 3.05682 7.03282 3.12257 7.19856 3.1225C7.36429 3.12243 7.5232 3.05653 7.64034 2.93931L8.41668 2.16312C9.00268 1.57722 9.79746 1.24807 10.6262 1.24807C11.4549 1.24807 12.2497 1.57722 12.8357 2.16312C13.4217 2.74901 13.7509 3.54365 13.7509 4.37223C13.7509 5.20081 13.4217 5.99545 12.8357 6.58134L10.9519 8.46639C10.3884 9.02938 9.63102 9.35587 8.83473 9.3791C8.03843 9.40232 7.26335 9.12052 6.66797 8.59133C6.54368 8.48115 6.38071 8.42485 6.21491 8.43481C6.0491 8.44477 5.89404 8.52017 5.78385 8.64443C5.67365 8.76869 5.61733 8.93163 5.62729 9.09741C5.63725 9.26318 5.71267 9.41821 5.83696 9.52839C6.67077 10.2695 7.75634 10.664 8.87153 10.6312C9.98672 10.5984 11.0472 10.1408 11.836 9.35191L13.7198 7.46842C14.5396 6.64739 15 5.53468 15 4.37457C15 3.21446 14.5396 2.10176 13.7198 1.28072V1.27916Z" fill="black"/>
</svg>
