<svg width="16" height="20" viewBox="0 0 16 20" fill="none" xmlns="http://www.w3.org/2000/svg">
<path d="M15.9898 0H0V1.99873L5.8063 6.35595C4.04416 6.93701 2.58483 8.19396 1.74905 9.85053C0.913268 11.5071 0.769426 13.4277 1.34914 15.1903C1.63595 16.0635 2.09209 16.8715 2.69147 17.5682C3.29085 18.2649 4.0217 18.8366 4.84223 19.2505C5.66275 19.6645 6.55684 19.9127 7.47335 19.9808C8.38987 20.0489 9.31081 19.9356 10.1835 19.6475C11.5831 19.1875 12.8017 18.2973 13.6657 17.104C14.5296 15.9106 14.9947 14.475 14.9947 13.0017C14.9947 11.5285 14.5296 10.0928 13.6657 8.89947C12.8017 7.70612 11.5831 6.81598 10.1835 6.35595L15.9898 1.99873V0ZM10.933 17.4889L7.99491 15.77L5.05678 17.4889L5.83628 14.161L3.24793 11.9224L6.65576 11.6326L7.99491 8.49459L9.33406 11.6326L12.7419 11.9224L10.1535 14.161L10.933 17.4889Z" fill="black"/>
</svg>
