<svg width="25" height="20" viewBox="0 0 25 20" fill="none" xmlns="http://www.w3.org/2000/svg">
<path d="M21.5113 12.8163C21.3913 11.9825 20.7475 11.3325 19.9188 11.1388C16.6975 10.3838 15.89 8.52875 15.7538 6.47125C15.1825 6.365 14.1663 6.25 12.4413 6.25C10.7163 6.25 9.70004 6.365 9.12879 6.47125C8.99254 8.52875 8.18504 10.3838 4.96379 11.1388C4.13504 11.3338 3.49129 11.9825 3.37129 12.8163L2.75004 17.1187C2.53129 18.6337 3.64379 20 5.19129 20H19.6913C21.2375 20 22.3513 18.6337 22.1325 17.1187L21.5113 12.8163ZM12.4413 16.865C10.6975 16.865 9.28379 15.465 9.28379 13.74C9.28379 12.015 10.6975 10.615 12.4413 10.615C14.185 10.615 15.5988 12.015 15.5988 13.74C15.5988 15.465 14.1838 16.865 12.4413 16.865ZM24.8788 5C24.8488 3.125 20.0763 0.00125 12.4413 0C4.80504 0.00125 0.0325395 3.125 0.00378948 5C-0.0249605 6.875 0.0300395 9.315 3.17254 8.90875C6.84879 8.4325 6.62254 7.14875 6.62254 5.31375C6.62254 4.03375 9.61254 3.725 12.4413 3.725C15.27 3.725 18.2588 4.03375 18.26 5.31375C18.26 7.14875 18.0338 8.4325 21.71 8.90875C24.8513 9.315 24.9075 6.875 24.8788 5Z" fill="black"/>
</svg>
