<svg width="18" height="21" viewBox="0 0 18 21" fill="none" xmlns="http://www.w3.org/2000/svg">
<path d="M16.2546 1.63044C15.4064 1.02323 14.3516 0.777772 13.3225 0.948037C12.2934 1.1183 11.3739 1.69035 10.7664 2.53839L0.841912 16.3936C0.61609 16.6928 0.452411 17.0342 0.360555 17.3976C0.268699 17.761 0.250501 18.1392 0.307041 18.5097C0.36358 18.8803 0.493727 19.2358 0.68978 19.5553C0.885834 19.8748 1.14388 20.1519 1.44865 20.3701C1.75342 20.5883 2.09883 20.7434 2.46444 20.8261C2.83005 20.9087 3.20855 20.9174 3.57757 20.8516C3.94659 20.7857 4.29874 20.6467 4.61319 20.4427C4.92765 20.2386 5.19813 19.9737 5.40862 19.6636L12.416 9.88177L11.5024 9.22665L4.49618 19.0107C4.23569 19.3735 3.84197 19.6183 3.40136 19.6914C2.96074 19.7645 2.50908 19.6599 2.1454 19.4006C1.78232 19.1397 1.53754 18.7455 1.46486 18.3043C1.39218 17.8631 1.49752 17.4112 1.75773 17.0476L11.68 3.19239H11.6822L11.68 3.19014C12.1151 2.58545 12.7722 2.17781 13.5072 2.0565C14.2422 1.93519 14.9954 2.11008 15.6017 2.54289C16.2064 2.97801 16.614 3.63502 16.7353 4.37006C16.8566 5.10509 16.6817 5.85824 16.2489 6.4646V6.46235L10.6411 14.4973C10.6411 14.4973 11.7648 14.4973 11.7537 14.4705L17.1625 7.11747C17.7691 6.26904 18.014 5.21445 17.8433 4.18552C17.6727 3.1566 17.1004 2.23756 16.2523 1.63044H16.2546Z" fill="black"/>
</svg>
