<svg width="35" height="22" viewBox="0 0 35 22" fill="none" xmlns="http://www.w3.org/2000/svg">
<path fill-rule="evenodd" clip-rule="evenodd" d="M20.1179 20.1167C19.4293 20.8044 18.4959 21.1907 17.5227 21.1907C16.5495 21.1907 15.6161 20.8044 14.9275 20.1167L1.07511 6.26915C0.386499 5.58022 -0.000229469 4.64595 1.02151e-07 3.67188C0.000229674 2.6978 0.387397 1.76372 1.07633 1.07511C1.76527 0.3865 2.69954 -0.000229469 3.67361 1.02151e-07C4.64768 0.000229674 5.58176 0.387399 6.27037 1.07633L17.5227 12.3287L28.775 1.07633C29.4673 0.407037 30.3948 0.0364336 31.3577 0.0443439C32.3206 0.0522542 33.2419 0.438045 33.9231 1.11862C34.6044 1.79921 34.991 2.72012 34.9998 3.68302C35.0087 4.64592 34.6389 5.57376 33.9703 6.2667L20.1179 20.1167Z" fill="black"/>
</svg>
