<svg width="20" height="20" viewBox="0 0 20 20" fill="none" xmlns="http://www.w3.org/2000/svg">
<path d="M20 7.47151C19.9864 6.92722 19.5543 6.49436 19.0236 6.43579C18.6418 6.44542 18.2605 6.4702 17.8807 6.51008C17.155 6.58579 16.4207 6.71293 15.9421 6.87793C15.5029 7.02936 14.6064 7.43151 13.4536 7.96865C12.8036 8.27151 12.0821 8.61293 11.3264 8.97008C10.7479 9.24365 10.15 9.52651 9.54929 9.80865C8.16571 10.4586 6.77143 11.1022 5.59429 11.6094C4.43 12.1108 3.43929 12.4958 2.88143 12.6051C2.19286 12.7401 1.14 12.8601 0.336429 12.8965C0.264286 13.1058 0.182857 13.3115 0.0928572 13.5144C0.0285715 13.6429 0 13.7858 0 13.9429C0.00375603 14.2246 0.118294 14.4935 0.31882 14.6913C0.519347 14.8892 0.789726 15.0001 1.07143 15.0001C3.08071 15.0001 3.99929 14.5886 5.79071 13.7851L5.9 13.7358L14.9714 9.65008C15.1264 9.58079 15.2714 9.51436 15.41 9.45151C16.695 8.86865 17.3486 8.57151 18.9214 8.57151C19.5286 8.57151 20.0143 8.07865 20 7.47151Z" fill="black"/>
<path d="M17.8074 5.8C17.8688 5.79286 17.9309 5.78714 17.9931 5.78143C16.7238 2.40286 13.4631 0 9.64308 0C4.75022 0 0.714506 4.05 0.714506 8.92857V10.7571C0.712938 11.2329 0.656858 11.707 0.547363 12.17C1.26593 12.125 2.14736 12.0207 2.74379 11.9043C3.21308 11.8121 4.13093 11.4614 5.31165 10.9536C6.47808 10.4514 7.86308 9.81071 9.24593 9.16214C9.84236 8.88214 10.4395 8.59928 11.0174 8.32643L11.0188 8.32571C11.7766 7.96714 12.5024 7.62429 13.1524 7.32143C14.2924 6.79 15.2266 6.36929 15.7095 6.20286C16.2666 6.01 17.0652 5.87714 17.8074 5.8ZM12.0259 17.1429L11.5974 15.6429H8.04308L8.57165 17.1429H12.0259Z" fill="black"/>
<path d="M11.2033 14.2143H11.614C12.244 14.2143 12.8126 14.6372 12.9862 15.2465L13.414 16.7429C13.4769 16.9565 13.4887 17.1819 13.4485 17.4008C13.4083 17.6198 13.3172 17.8263 13.1826 18.0036C12.994 18.2522 12.7283 18.4322 12.4326 18.5165L12.6926 19.4286C12.7783 19.7143 12.564 20.0001 12.264 20.0001H9.68544C9.56953 20.0001 9.45674 19.9625 9.36401 19.8929C9.27128 19.8234 9.20361 19.7256 9.17115 19.6143L8.87401 18.5715H8.57115C8.27749 18.5699 7.99129 18.4788 7.75064 18.3105C7.50999 18.1422 7.3263 17.9046 7.22401 17.6293L7.22115 17.6222L6.68687 16.1072L6.68401 16.0979C6.61253 15.8825 6.59306 15.6533 6.6272 15.429C6.66134 15.2046 6.74812 14.9916 6.88044 14.8072C7.06997 14.5491 7.33938 14.3608 7.64687 14.2715L7.51115 13.7936L10.6754 12.3679L11.2033 14.2143ZM12.0426 17.8572H12.0547C12.1634 17.8543 12.27 17.8271 12.3667 17.7777C12.4635 17.7283 12.548 17.6578 12.614 17.5715C12.6809 17.483 12.7262 17.38 12.746 17.2708C12.7659 17.1616 12.7598 17.0493 12.7283 16.9429L12.2997 15.4429C12.2551 15.2953 12.1646 15.1658 12.0412 15.0733C11.9179 14.9808 11.7682 14.9301 11.614 14.9286H8.04258C7.92842 14.93 7.81612 14.9578 7.7145 15.0099C7.61289 15.0619 7.5247 15.1368 7.45687 15.2286C7.3907 15.3217 7.34775 15.4293 7.33159 15.5424C7.31544 15.6554 7.32656 15.7707 7.36401 15.8786L7.89258 17.3786C7.94367 17.5179 8.03597 17.6383 8.1572 17.7238C8.27842 17.8093 8.42282 17.8558 8.57115 17.8572H12.0426Z" fill="black"/>
</svg>
