<svg width="150" height="150" viewBox="0 0 150 150" fill="none" xmlns="http://www.w3.org/2000/svg">
<path d="M119.812 4.51425C123.284 2.56434 125.557 1.30439 127.364 0.584426C129.059 -0.0905442 129.802 -0.0530464 130.312 0.0744481C130.807 0.209442 131.459 0.524428 132.569 1.92687C133.761 3.4193 135.074 5.60171 137.076 8.97656L145.356 22.8959C147.366 26.2708 148.656 28.4607 149.398 30.2006C150.088 31.8356 150.036 32.5105 149.923 32.9455C149.796 33.388 149.488 34.0105 148.026 35.0979C146.488 36.2529 144.231 37.5278 140.751 39.4777L111.262 55.992C107.978 57.8369 105.848 59.0219 104.16 59.6893C102.585 60.3193 101.94 60.2668 101.535 60.1543C101.123 60.0493 100.538 59.7793 99.4879 58.4519C98.363 57.042 97.1255 54.9645 95.2131 51.7472L86.3635 36.8903C84.3986 33.583 83.1386 31.4381 82.4112 29.7432C81.7362 28.1457 81.7887 27.4932 81.9012 27.0883C82.0062 26.6833 82.2912 26.0908 83.6861 25.0484C85.171 23.9234 87.3534 22.701 90.7358 20.8035L119.812 4.51425ZM49.7801 48.3723L75.654 33.8905C76.5989 35.8629 77.9264 38.0903 79.4263 40.6102L88.5309 55.9095C89.9033 58.2194 91.1333 60.2818 92.3107 61.9692L80.7087 68.464L112.027 141.886C112.327 142.594 112.483 143.355 112.487 144.125C112.49 144.894 112.341 145.656 112.048 146.368C111.755 147.079 111.324 147.725 110.78 148.269C110.236 148.813 109.589 149.243 108.877 149.535C107.434 150.142 105.808 150.155 104.355 149.571C102.902 148.987 101.738 147.853 101.115 146.416L74.994 85.1882L48.8726 146.416C48.2503 147.851 47.0874 148.984 45.6358 149.568C44.1843 150.152 42.5611 150.14 41.118 149.535C40.4063 149.243 39.7596 148.813 39.2154 148.269C38.6711 147.725 38.2401 147.079 37.9471 146.368C37.6542 145.656 37.5053 144.894 37.5089 144.125C37.5125 143.355 37.6685 142.594 37.9681 141.886L65.6869 76.8786C62.672 78.566 60.6696 79.6685 59.0722 80.3059C57.4897 80.9359 56.8448 80.8834 56.4398 80.7784C56.0273 80.6659 55.4423 80.3959 54.3924 79.0685C53.2749 77.6586 52.03 75.5811 50.1176 72.3638L45.4153 64.4591C43.4429 61.1593 42.1829 59.0144 41.4554 57.3119C40.7805 55.7145 40.833 55.0695 40.9455 54.6646C41.058 54.2521 41.3355 53.6671 42.7304 52.6171C44.2153 51.4997 46.4052 50.2698 49.7801 48.3798" fill="black"/>
<path d="M34.6985 61.4668L9.2371 75.7312C5.75725 77.6811 3.49985 78.956 1.96241 80.1035C0.499979 81.1984 0.192492 81.8209 0.0724968 82.2559C-0.0474979 82.6909 -0.0999956 83.3658 0.589974 85.0008C1.32494 86.7407 2.62239 88.9381 4.6323 92.3129C6.64221 95.6878 7.94715 97.8702 9.1321 99.3626C10.2496 100.765 10.902 101.088 11.397 101.215C11.907 101.35 12.6494 101.38 14.3519 100.705C16.1518 99.9851 18.4242 98.7252 21.8965 96.7753L47.2229 82.5859C46.038 80.9059 44.8155 78.836 43.4356 76.5336L38.4708 68.1865C36.9709 65.6666 35.6509 63.4392 34.6985 61.4668Z" fill="black"/>
</svg>
