<svg width="45" height="45" viewBox="0 0 45 45" fill="none" xmlns="http://www.w3.org/2000/svg">
<path d="M32.1612 28.3019H30.1286L29.4082 27.6072C32.0168 24.5815 33.4505 20.7188 33.4477 16.7238C33.4477 13.4162 32.4669 10.1828 30.6292 7.43258C28.7916 4.68236 26.1797 2.53882 23.1238 1.27303C20.0679 0.00724618 16.7053 -0.323942 13.4612 0.321351C10.2171 0.966645 7.23718 2.55944 4.89831 4.89831C2.55944 7.23718 0.966645 10.2171 0.321351 13.4612C-0.323942 16.7053 0.00724618 20.0679 1.27303 23.1238C2.53882 26.1797 4.68236 28.7916 7.43258 30.6292C10.1828 32.4669 13.4162 33.4477 16.7238 33.4477C20.8662 33.4477 24.6741 31.9297 27.6072 29.4082L28.3019 30.1286V32.1612L41.1664 45L45 41.1664L32.1612 28.3019ZM16.7238 28.3019C10.3173 28.3019 5.1458 23.1304 5.1458 16.7238C5.1458 10.3173 10.3173 5.1458 16.7238 5.1458C23.1304 5.1458 28.3019 10.3173 28.3019 16.7238C28.3019 23.1304 23.1304 28.3019 16.7238 28.3019Z" fill="black"/>
</svg>
